<?xml version="1.0" encoding="iso-8859-1"?>
<!-- Generator: Adobe Illustrator 19.0.0, SVG Export Plug-In . SVG Version: 6.00 Build 0)  -->
<svg version="1.1" id="Layer_1" xmlns="http://www.w3.org/2000/svg" xmlns:xlink="http://www.w3.org/1999/xlink" x="0px" y="0px"
	 viewBox="0 0 447.969 447.969" style="enable-background:new 0 0 447.969 447.969;" xml:space="preserve">
<g transform="translate(0 -1020.36)" shape-rendering="auto" image-rendering="auto" color-rendering="auto" color-interpolation="sRGB">
	<path style="fill:#5A3392;" d="M0,1084.313v320.063h447.969v-320.063H0z"/>
	<path style="fill:#29A3EC;" d="M16.062,1100.374h415.969v96.031H16.062L16.062,1100.374z"/>
	<g>
		<path style="fill:#EE746C;" d="M16.062,1212.342h415.969v79.969H16.062L16.062,1212.342z"/>
		<path style="fill:#EE746C;" d="M16.062,1308.374h415.969v79.938H16.062L16.062,1308.374z"/>
	</g>
	<path style="fill:#36CAF3;" d="M26.047,1110.389h396v76h-396L26.047,1110.389z"/>
	<g>
		<path style="fill:#FFFFFF;" d="M224.047,1116.313c-17.578,0-32.008,14.43-32.008,32.008c0,17.58,14.429,32.008,32.008,32.008
			c17.578,0,32.008-14.43,32.008-32.008C256.055,1130.743,241.625,1116.313,224.047,1116.313z M224.047,1132.378
			c8.931,0,15.945,7.014,15.945,15.943c0,8.932-7.014,16.064-15.945,16.064c-8.931,0-16.063-7.133-16.063-16.064
			C207.984,1139.389,215.116,1132.378,224.047,1132.378z"/>
		<path style="fill:#FFFFFF;" d="M272,1116.313c-4.396,0.049-7.93,3.635-7.913,8.031v31.063c-0.057,0.551-0.057,1.107,0,1.658
			v15.119c-0.372,4.402,2.896,8.273,7.299,8.645c4.403,0.373,8.274-2.895,8.645-7.299c0.038-0.447,0.038-0.898,0-1.346v-2.951
			l20.315,10.158c3.791,2.27,8.705,1.037,10.974-2.756c2.27-3.791,1.036-8.703-2.755-10.973c-0.362-0.217-0.741-0.406-1.133-0.563
			l-17.48-8.74l17.48-8.859c2.751-1.344,4.494-4.141,4.488-7.203v-15.945c0.017-4.418-3.552-8.014-7.97-8.031
			c-0.02,0-0.041,0-0.061,0H272L272,1116.313z M280.031,1132.378h15.827v2.951l-15.827,8.031v-10.986V1132.378z"/>
		<path style="fill:#FFFFFF;" d="M178.929,1118.792c-13.019-5.611-28.234-1.248-36.614,10.277
			c-8.379,11.531-8.367,27.289,0.122,38.738c8.484,11.453,23.767,15.777,36.732,10.039c4.022-1.844,5.789-6.598,3.946-10.619
			c-1.811-3.953-6.446-5.74-10.442-4.025c-6.194,2.738-13.095,0.912-17.362-4.846c-4.268-5.756-4.336-14.039-0.122-19.842
			c4.218-5.807,11.148-7.758,17.362-5.08c3.943,1.994,8.756,0.416,10.751-3.527c1.995-3.941,0.416-8.756-3.526-10.75
			c-0.275-0.139-0.558-0.262-0.847-0.369L178.929,1118.792z"/>
		<g>
			<path style="fill:#FFFFFF;" d="M327.984,1116.313c-4.396,0.049-7.93,3.635-7.913,8.031v47.953
				c-0.017,4.396,3.517,7.982,7.913,8.031h31.89c4.403,0.377,8.277-2.887,8.654-7.289c0.377-4.402-2.887-8.277-7.29-8.654
				c-0.454-0.039-0.91-0.039-1.364,0h-23.858v-32.008h23.858c4.436,0,8.032-3.596,8.032-8.033c0-4.436-3.596-8.031-8.032-8.031
				H327.984z"/>
			<path style="fill:#FFFFFF;" d="M332,1140.29c-4.436-0.045-8.067,3.516-8.111,7.951c-0.044,4.436,3.516,8.066,7.951,8.111
				c0.053,0,0.106,0,0.16,0h11.929c4.436-0.045,7.995-3.676,7.951-8.111c-0.043-4.373-3.578-7.908-7.951-7.951H332z"/>
			<path style="fill:#FFFFFF;" d="M88.102,1116.313c-4.419,0.037-7.971,3.648-7.934,8.068c0.013,1.541,0.471,3.047,1.319,4.334
				l23.622,35.67H88.102c-4.403-0.377-8.277,2.887-8.654,7.289c-0.377,4.402,2.887,8.277,7.29,8.654c0.454,0.039,0.91,0.039,1.364,0
				h31.772c4.419,0.027,8.024-3.531,8.052-7.949c0.01-1.582-0.449-3.133-1.319-4.453l-23.504-35.551h16.772
				c4.436,0,8.032-3.596,8.032-8.031c0-4.438-3.596-8.033-8.032-8.033H88.102L88.102,1116.313z"/>
		</g>
	</g>
	<g>
		<path style="fill:#FB9761;" d="M26.047,1220.327h396v64h-396L26.047,1220.327z"/>
		<path style="fill:#FB9761;" d="M26.047,1316.342h396v64h-396L26.047,1316.342z"/>
	</g>
	<g>
		<g>
			<path style="fill:#5A3392;" d="M48.063,1200.29v192.047h15.945V1200.29H48.063z"/>
			<path style="fill:#5A3392;" d="M320.071,1200.29v192.047h15.945V1200.29H320.071z"/>
			<path style="fill:#5A3392;" d="M272,1200.29v192.047h16.063V1200.29H272z"/>
			<path style="fill:#5A3392;" d="M224.047,1200.29v192.047h15.945V1200.29H224.047z"/>
		</g>
		<g>
			<path style="fill:#FFFFFF;" d="M405.464,1228.399l-30.354,26.576l-12.52-10.984l-10.512,12.047l23.032,20.314l40.866-36.023
				L405.464,1228.399L405.464,1228.399z"/>
			<path style="fill:#FFFFFF;" d="M371.331,1324.303l-11.339,11.34l36.732,36.732l11.339-11.34L371.331,1324.303z"/>
			<path style="fill:#FFFFFF;" d="M396.724,1324.303l-36.732,36.732l11.339,11.34l36.732-36.732L396.724,1324.303z"/>
		</g>
	</g>
</g>
<g>
</g>
<g>
</g>
<g>
</g>
<g>
</g>
<g>
</g>
<g>
</g>
<g>
</g>
<g>
</g>
<g>
</g>
<g>
</g>
<g>
</g>
<g>
</g>
<g>
</g>
<g>
</g>
<g>
</g>
</svg>
